<svg xmlns="http://www.w3.org/2000/svg" viewBox="-80 -80 160 160">
  <rect x="-80" y="-80" width="160" height="160" fill="#FAF9F5"/>
  <circle cx="0" cy="0" r="72" fill="none" stroke="#dedad2" stroke-width="1"/>
  <polygon points="0,-46 40,-23 40,23 0,46 -40,23 -40,-23"
           fill="none" stroke="#2c2c2c" stroke-width="2.5"/>
  <polygon points="0,-28 24,-14 24,14 0,28 -24,14 -24,-14"
           fill="none" stroke="#2c2c2c" stroke-width="1.2" opacity="0.45"/>
  <circle cx="0" cy="0" r="6" fill="#2c2c2c"/>
  <circle cx="0" cy="-46" r="3.5" fill="#2c2c2c"/>
  <circle cx="40" cy="-23" r="3.5" fill="#2c2c2c"/>
  <circle cx="40" cy="23" r="3.5" fill="#2c2c2c"/>
  <circle cx="0" cy="46" r="3.5" fill="#2c2c2c"/>
  <circle cx="-40" cy="23" r="3.5" fill="#2c2c2c"/>
  <circle cx="-40" cy="-23" r="3.5" fill="#2c2c2c"/>
  <line x1="0" y1="-28" x2="0" y2="-46" stroke="#2c2c2c" stroke-width="1.5" opacity="0.45"/>
  <line x1="24" y1="-14" x2="40" y2="-23" stroke="#2c2c2c" stroke-width="1.5" opacity="0.45"/>
  <line x1="24" y1="14" x2="40" y2="23" stroke="#2c2c2c" stroke-width="1.5" opacity="0.45"/>
  <line x1="0" y1="28" x2="0" y2="46" stroke="#2c2c2c" stroke-width="1.5" opacity="0.45"/>
  <line x1="-24" y1="14" x2="-40" y2="23" stroke="#2c2c2c" stroke-width="1.5" opacity="0.45"/>
  <line x1="-24" y1="-14" x2="-40" y2="-23" stroke="#2c2c2c" stroke-width="1.5" opacity="0.45"/>
</svg>
